<svg width="22" height="22" viewBox="0 0 22 22" fill="none" xmlns="http://www.w3.org/2000/svg">
<path d="M0 18.1333C0 19.9467 1.38667 21.3333 3.2 21.3333H18.1333C19.9467 21.3333 21.3333 19.9467 21.3333 18.1333V9.6H0V18.1333ZM18.1333 2.13333H16V1.06667C16 0.426667 15.5733 0 14.9333 0C14.2933 0 13.8667 0.426667 13.8667 1.06667V2.13333H7.46667V1.06667C7.46667 0.426667 7.04 0 6.4 0C5.76 0 5.33333 0.426667 5.33333 1.06667V2.13333H3.2C1.38667 2.13333 0 3.52 0 5.33333V7.46667H21.3333V5.33333C21.3333 3.52 19.9467 2.13333 18.1333 2.13333Z" fill="white"/>
</svg>
