<svg width="32" height="32" viewBox="0 0 32 32" fill="none" xmlns="http://www.w3.org/2000/svg">
<rect width="32" height="32" rx="16" fill="#6495ED"/>
<path d="M16.0013 6.78914C13.5581 6.78914 11.2149 7.7597 9.48731 9.48731C7.7597 11.2149 6.78914 13.5581 6.78914 16.0013C6.78914 18.4445 7.7597 20.7876 9.48731 22.5152C11.2149 24.2428 13.5581 25.2134 16.0013 25.2134C16.1941 25.2134 16.3791 25.29 16.5155 25.4264C16.6519 25.5628 16.7285 25.7478 16.7285 25.9407C16.7285 26.1335 16.6519 26.3185 16.5155 26.4549C16.3791 26.5913 16.1941 26.6679 16.0013 26.6679C10.1104 26.6679 5.33459 21.8922 5.33459 16.0013C5.33459 10.1104 10.1104 5.33459 16.0013 5.33459C21.8922 5.33459 26.6679 10.1104 26.6679 16.0013C26.6679 16.1941 26.5913 16.3791 26.4549 16.5155C26.3185 16.6519 26.1335 16.7285 25.9407 16.7285C25.7478 16.7285 25.5628 16.6519 25.4264 16.5155C25.29 16.3791 25.2134 16.1941 25.2134 16.0013C25.2134 13.5581 24.2428 11.2149 22.5152 9.48731C20.7876 7.7597 18.4445 6.78914 16.0013 6.78914Z" fill="white"/>
<path d="M17.7065 21.3134L21.3216 24.5269C21.3646 24.5653 21.4178 24.5904 21.4747 24.5992C21.5317 24.608 21.59 24.6001 21.6426 24.5766C21.6951 24.553 21.7398 24.5147 21.7711 24.4663C21.8024 24.418 21.8191 24.3615 21.819 24.3039V21.8176H25.9402C26.1331 21.8176 26.3181 21.741 26.4545 21.6046C26.5909 21.4682 26.6675 21.2832 26.6675 21.0903C26.6675 20.8975 26.5909 20.7125 26.4545 20.5761C26.3181 20.4397 26.1331 20.3631 25.9402 20.3631H21.819V17.8768C21.8191 17.8191 21.8024 17.7627 21.7711 17.7143C21.7398 17.666 21.6951 17.6277 21.6426 17.6041C21.59 17.5805 21.5317 17.5727 21.4747 17.5815C21.4178 17.5903 21.3646 17.6154 21.3216 17.6537L17.7065 20.8673C17.675 20.8952 17.6497 20.9296 17.6323 20.968C17.615 21.0065 17.606 21.0482 17.606 21.0903C17.606 21.1325 17.615 21.1742 17.6323 21.2127C17.6497 21.2511 17.675 21.2854 17.7065 21.3134ZM21.1209 13.3619C21.1883 13.2944 21.2419 13.2142 21.2784 13.1261C21.3149 13.0379 21.3337 12.9434 21.3337 12.8479C21.3337 12.7525 21.3149 12.658 21.2784 12.5698C21.2419 12.4816 21.1883 12.4015 21.1209 12.334C21.0534 12.2665 20.9732 12.2129 20.8851 12.1764C20.7969 12.1399 20.7024 12.1211 20.6069 12.1211C20.5115 12.1211 20.417 12.1399 20.3288 12.1764C20.2406 12.2129 20.1605 12.2665 20.093 12.334L14.3039 18.1221L11.9087 15.7279C11.8412 15.6604 11.7611 15.6069 11.6729 15.5704C11.5847 15.5338 11.4902 15.515 11.3948 15.515C11.2993 15.515 11.2048 15.5338 11.1166 15.5704C11.0285 15.6069 10.9483 15.6604 10.8808 15.7279C10.8134 15.7954 10.7598 15.8755 10.7233 15.9637C10.6868 16.0519 10.668 16.1464 10.668 16.2419C10.668 16.3373 10.6868 16.4318 10.7233 16.52C10.7598 16.6082 10.8134 16.6883 10.8808 16.7558L13.7899 19.6649C13.9263 19.8011 14.1112 19.8776 14.3039 19.8776C14.4966 19.8776 14.6815 19.8011 14.8178 19.6649L21.1209 13.3619Z" fill="white"/>
</svg>
