<svg width="24" height="24" viewBox="0 0 24 24" fill="none" xmlns="http://www.w3.org/2000/svg">
<g clip-path="url(#clip0_129_98)">
<path d="M18.4075 0.109375H5.59273C2.56436 0.109375 0.109375 2.56436 0.109375 5.59273V18.4075C0.109375 21.4359 2.56436 23.8909 5.59273 23.8909H18.4075C21.4359 23.8909 23.8909 21.4359 23.8909 18.4075V5.59273C23.8909 2.56436 21.4359 0.109375 18.4075 0.109375Z" fill="url(#paint0_linear_129_98)"/>
<path d="M15.8363 4.80058C16.7391 4.80422 17.6039 5.16447 18.2423 5.80285C18.8807 6.44123 19.2409 7.30602 19.2445 8.20882V15.7903C19.2409 16.6931 18.8807 17.5579 18.2423 18.1963C17.6039 18.8347 16.7391 19.1949 15.8363 19.1985H8.16585C7.26305 19.1949 6.39826 18.8347 5.75988 18.1963C5.1215 17.5579 4.76125 16.6931 4.75761 15.7903V8.20882C4.76125 7.30602 5.1215 6.44123 5.75988 5.80285C6.39826 5.16447 7.26305 4.80422 8.16585 4.80058H15.8363ZM15.8363 3.21536H8.16585C5.41932 3.21536 3.17188 5.46536 3.17188 8.20933V15.7903C3.17188 18.5368 5.42188 20.7843 8.16585 20.7843H15.8363C18.5828 20.7843 20.8303 18.5343 20.8303 15.7903V8.20882C20.8303 5.46229 18.5828 3.21484 15.8363 3.21484V3.21536Z" fill="white"/>
<path d="M11.9996 9.04031C12.5849 9.04031 13.157 9.21386 13.6436 9.53903C14.1303 9.8642 14.5096 10.3264 14.7336 10.8671C14.9575 11.4078 15.0162 12.0028 14.902 12.5769C14.7878 13.1509 14.5059 13.6782 14.0921 14.0921C13.6782 14.5059 13.1509 14.7878 12.5769 14.902C12.0029 15.0162 11.4078 14.9575 10.8671 14.7336C10.3264 14.5096 9.8642 14.1303 9.53903 13.6436C9.21387 13.157 9.04031 12.5849 9.04031 11.9996C9.04125 11.215 9.35334 10.4629 9.9081 9.9081C10.4629 9.35334 11.215 9.04125 11.9996 9.04031ZM11.9996 7.45508C11.1008 7.45508 10.2221 7.72161 9.47479 8.22096C8.72745 8.72032 8.14497 9.43007 7.80101 10.2605C7.45705 11.0909 7.36705 12.0046 7.5424 12.8862C7.71775 13.7677 8.15057 14.5774 8.78613 15.213C9.42169 15.8486 10.2314 16.2814 11.113 16.4567C11.9945 16.6321 12.9083 16.5421 13.7387 16.1981C14.5691 15.8542 15.2788 15.2717 15.7782 14.5243C16.2775 13.777 16.5441 12.8984 16.5441 11.9996C16.5441 10.7943 16.0653 9.63838 15.213 8.78613C14.3608 7.93387 13.2048 7.45508 11.9996 7.45508Z" fill="white"/>
<path d="M16.6438 8.33457C17.2389 8.33457 17.7213 7.85219 17.7213 7.25713C17.7213 6.66207 17.2389 6.17969 16.6438 6.17969C16.0488 6.17969 15.5664 6.66207 15.5664 7.25713C15.5664 7.85219 16.0488 8.33457 16.6438 8.33457Z" fill="white"/>
</g>
<defs>
<linearGradient id="paint0_linear_129_98" x1="15.6957" y1="24.889" x2="8.30449" y2="-0.888808" gradientUnits="userSpaceOnUse">
<stop stop-color="#FFDB73"/>
<stop offset="0.08" stop-color="#FDAD4E"/>
<stop offset="0.15" stop-color="#FB832E"/>
<stop offset="0.19" stop-color="#FA7321"/>
<stop offset="0.23" stop-color="#F6692F"/>
<stop offset="0.37" stop-color="#E84A5A"/>
<stop offset="0.48" stop-color="#E03675"/>
<stop offset="0.55" stop-color="#DD2F7F"/>
<stop offset="0.68" stop-color="#B43D97"/>
<stop offset="0.97" stop-color="#4D60D4"/>
<stop offset="1" stop-color="#4264DB"/>
</linearGradient>
<clipPath id="clip0_129_98">
<rect width="24" height="24" fill="white"/>
</clipPath>
</defs>
</svg>
