<svg width="41" height="41" viewBox="0 0 41 41" fill="none" xmlns="http://www.w3.org/2000/svg">
<path fill-rule="evenodd" clip-rule="evenodd" d="M15.9137 7.69617C9.55613 11.7791 6.02422 16.5313 5.31795 21.9527C4.21847 30.3926 11.7661 34.5237 15.5904 30.8119C19.4147 27.1002 17.1223 22.3889 14.3531 21.1011C11.5839 19.8132 9.89045 20.2618 10.1858 18.5408C10.4812 16.8199 14.421 12.0485 17.8821 9.82637C18.1118 9.6311 18.1992 9.25221 17.9781 8.96475C17.8326 8.77572 17.5473 8.40498 17.1223 7.85248C16.7505 7.36935 16.3944 7.38744 15.9137 7.69617Z" fill="#707070"/>
<path fill-rule="evenodd" clip-rule="evenodd" d="M32.6533 7.69617C26.2958 11.7791 22.7638 16.5313 22.0575 21.9527C20.9581 30.3926 28.5057 34.5237 32.33 30.8119C36.1543 27.1002 33.8619 22.3889 31.0927 21.1011C28.3235 19.8132 26.63 20.2618 26.9255 18.5408C27.2209 16.8199 31.1606 12.0485 34.6218 9.82637C34.8514 9.6311 34.9388 9.25221 34.7176 8.96475C34.5722 8.77572 34.287 8.40498 33.8619 7.85248C33.4902 7.36935 33.1341 7.38744 32.6533 7.69617Z" fill="#707070"/>
</svg>
