<svg width="65" height="65" viewBox="0 0 65 65" fill="none" xmlns="http://www.w3.org/2000/svg">
<path d="M26.7533 41.7304C26.5129 40.7987 26.0273 39.9484 25.3469 39.268C24.6665 38.5876 23.8162 38.102 22.8845 37.8616L6.36725 33.6024C6.08545 33.5224 5.83743 33.3527 5.66083 33.119C5.48422 32.8853 5.38867 32.6003 5.38867 32.3074C5.38867 32.0145 5.48422 31.7295 5.66083 31.4958C5.83743 31.2621 6.08545 31.0924 6.36725 31.0124L22.8845 26.7505C23.8159 26.5104 24.6659 26.0251 25.3463 25.3452C26.0267 24.6653 26.5125 23.8156 26.7533 22.8844L31.0125 6.36715C31.0917 6.08424 31.2612 5.83499 31.4953 5.65744C31.7293 5.47989 32.0151 5.38379 32.3088 5.38379C32.6026 5.38379 32.8883 5.47989 33.1224 5.65744C33.3565 5.83499 33.526 6.08424 33.6052 6.36715L37.8617 22.8844C38.1021 23.8161 38.5877 24.6664 39.2681 25.3468C39.9485 26.0272 40.7988 26.5128 41.7305 26.7532L58.2478 31.0097C58.5318 31.0881 58.7823 31.2574 58.9608 31.4918C59.1393 31.7262 59.236 32.0128 59.236 32.3074C59.236 32.602 59.1393 32.8885 58.9608 33.123C58.7823 33.3574 58.5318 33.5267 58.2478 33.6051L41.7305 37.8616C40.7988 38.102 39.9485 38.5876 39.2681 39.268C38.5877 39.9484 38.1021 40.7987 37.8617 41.7304L33.6025 58.2476C33.5233 58.5306 33.3538 58.7798 33.1197 58.9573C32.8857 59.1349 32.5999 59.231 32.3062 59.231C32.0124 59.231 31.7267 59.1349 31.4926 58.9573C31.2585 58.7798 31.089 58.5306 31.0098 58.2476L26.7533 41.7304Z" stroke="#6495ED" stroke-width="5.38459" stroke-linecap="round" stroke-linejoin="round"/>
<path d="M53.8458 8.07666V18.8458" stroke="#6495ED" stroke-width="5.38459" stroke-linecap="round" stroke-linejoin="round"/>
<path d="M59.2304 13.4614H48.4612" stroke="#6495ED" stroke-width="5.38459" stroke-linecap="round" stroke-linejoin="round"/>
<path d="M10.7692 45.769V51.1536" stroke="#6495ED" stroke-width="5.38459" stroke-linecap="round" stroke-linejoin="round"/>
<path d="M13.4614 48.4609H8.07684" stroke="#6495ED" stroke-width="5.38459" stroke-linecap="round" stroke-linejoin="round"/>
</svg>
